<?xml version="1.0" encoding="utf-8"?><svg xmlns="http://www.w3.org/2000/svg" viewBox="0 0 36.48 24.92"><defs><style>.b03c8a26-0bda-4d98-997b-130956e5dd3c{fill:#662d91}</style></defs><g id="b5b27205-e7a9-4197-b100-ee80c981ff47" data-name="Capa 2"><g id="e57a56f4-ea7b-4c6b-ba30-41f8b0aa3575" data-name="HEADER"><path class="b03c8a26-0bda-4d98-997b-130956e5dd3c" d="M21.14 16.39a6.28 6.28 0 10-5.58 0c-6.55 1.55-7 8.41-7 8.48l1 .05a8.29 8.29 0 018.8-7.86 8.3 8.3 0 018.8 7.86l1-.05c-.04-.07-.47-6.93-7.02-8.48zM13 10.77a5.31 5.31 0 115.31 5.31A5.32 5.32 0 0113 10.77z"/><path class="b03c8a26-0bda-4d98-997b-130956e5dd3c" d="M29.5 11.9a6.28 6.28 0 10-8.68-7.78 7 7 0 01.91.33 5.32 5.32 0 113.59 7 12 12 0 01-.3 1.29 9.88 9.88 0 011.69-.12 8.3 8.3 0 018.8 7.86l1-.05c-.03-.12-.46-6.98-7.01-8.53zM7 11.9a6.28 6.28 0 118.68-7.78 7 7 0 00-.91.33 5.32 5.32 0 10-3.59 7 12 12 0 00.3 1.29 9.88 9.88 0 00-1.69-.12A8.3 8.3 0 001 20.43l-1-.05c0-.07.43-6.93 7-8.48z"/></g></g></svg>