<?xml version="1.0" encoding="utf-8"?><svg xmlns="http://www.w3.org/2000/svg" viewBox="0 0 29.27 29.25"><g data-name="Capa 2"><path d="M29.14.45v-.3h-.31c-.37 0-9.35-1.06-14.36 4-4.68 4.71-4.11 12.82-4 14.17L5.43 23.3v-3c.75-.64 4.26-3.77 4.26-7.69 0-4.3-4.22-7.65-4.41-7.81l-.23-.2-.22.18C4.64 4.94.41 8.33.41 12.59c0 3.92 3.51 7.05 4.26 7.69v3.77L0 28.72l.53.53L11 18.77a20.31 20.31 0 002.07.08c3.06 0 8.56-.57 12.1-4.08C30.2 9.8 29.22.83 29.14.45zm-28 12.14c0-3.36 3-6.26 3.88-7 .87.75 3.89 3.65 3.89 7s-3 6.26-3.89 7c-.84-.74-3.85-3.65-3.85-7zm23.49 1.66c-3.92 3.92-10.64 4-12.93 3.84l5.61-5.61h5.13v-.76H18.1l5.8-5.8-.53-.53-7.8 7.76V8.63h-.75V14l-3.62 3.56c-.12-2.29-.12-9 3.8-12.89C19.27.41 26.81.75 28.43.9c.11 1.55.45 9.1-3.77 13.35z" fill="#39b54a" data-name="HEADER"/></g></svg>