<?xml version="1.0" encoding="utf-8"?><svg xmlns="http://www.w3.org/2000/svg" viewBox="0 0 29.96 29.49"><defs><style>.a8120a2d-1e3f-458a-8bca-3af06d11eada{fill:#ed1c24}</style></defs><g id="bd96a802-6742-44e5-b0d4-be278de6b3e9" data-name="Capa 2"><g id="b376be2c-ddeb-4332-af29-decc7a29168b" data-name="HEADER"><path class="a8120a2d-1e3f-458a-8bca-3af06d11eada" d="M12.42 14.54h.75v14.94h-.75zM16.61 14.54h.75v14.94h-.75z"/><path class="a8120a2d-1e3f-458a-8bca-3af06d11eada" d="M28.38 7.65a6.4 6.4 0 00-5-1.62h-1.82V4.39h3.91V0H4v4.39h3.94V6H6.6a6.45 6.45 0 00-5 1.62A5 5 0 000 11.33a5.18 5.18 0 002.14 3.77 4.94 4.94 0 004.07 1.07 4.11 4.11 0 001.73-.87v14.19h.75V14.57a4.51 4.51 0 001-2.39h10.58a4.29 4.29 0 00.54 1.7v15.61h.75V14.88a4.39 4.39 0 002.19 1.29 3.8 3.8 0 00.89.1 5.3 5.3 0 003.18-1.17A5.14 5.14 0 0030 11.33a4.92 4.92 0 00-1.62-3.68zM4.78.75h19.94v2.89H4.78zm3.91 3.64h12.12V6H8.69zM27.36 14.5a4.19 4.19 0 01-3.45.94A4 4 0 0121 11.8a2.36 2.36 0 01.93-1.9 1.88 1.88 0 011.61-.4 2.45 2.45 0 011.34 2.39h.75a3.12 3.12 0 00-1.89-3.09 2.62 2.62 0 00-2.27.53 3.05 3.05 0 00-1.18 2.12H9.69a3.05 3.05 0 00-1.18-2.14 2.65 2.65 0 00-2.27-.53 3.13 3.13 0 00-1.89 3.09h.75A2.45 2.45 0 016.44 9.5a1.87 1.87 0 011.61.4A2.33 2.33 0 019 11.8a4 4 0 01-2.93 3.64 4.19 4.19 0 01-3.47-.94 4.46 4.46 0 01-1.85-3.19A4.21 4.21 0 012.1 8.19a5.7 5.7 0 014.47-1.41h16.85a5.66 5.66 0 014.44 1.41 4.17 4.17 0 011.35 3.12 4.46 4.46 0 01-1.85 3.19z"/></g></g></svg>