<svg xmlns="http://www.w3.org/2000/svg" viewBox="0 0 22.61 28.36"><defs><style>.cls-1{fill:#edc418}</style></defs><g id="Layer_2" data-name="Layer 2"><g id="HEADER"><path class="cls-1" d="M22.61 22.7V.35a.35.35 0 00-.35-.35H2.84A2.84 2.84 0 000 2.84v22.68a2.84 2.84 0 002.84 2.84h19.42a.36.36 0 00.3-.17.34.34 0 000-.35 5.79 5.79 0 01-.49-2.5 5.93 5.93 0 01.46-2.44.37.37 0 00.08-.2zM.71 2.84A2.13 2.13 0 012.84.71H21.9v21.63H2.84a2.84 2.84 0 00-2.13 1zm2.13 24.81a2.13 2.13 0 01-2.13-2.13v-.34a2.13 2.13 0 012.13-2.13h18.88a7.07 7.07 0 00-.33 1.95H4.09a.35.35 0 000 .7h17.3a7.16 7.16 0 00.33 2z"/><path class="cls-1" d="M6.18 13.12H17.7a.36.36 0 00.36-.35v-8a.35.35 0 00-.36-.35H6.18a.34.34 0 00-.35.35v8a.35.35 0 00.35.35zm.36-8h10.81v7.25H6.54z"/><path class="cls-1" d="M14.33 7.16H9.55a.36.36 0 000 .71h4.78a.36.36 0 000-.71zM14.33 9.7H9.55a.36.36 0 000 .71h4.78a.36.36 0 000-.71z"/></g></g></svg>