<?xml version="1.0" encoding="utf-8"?><svg xmlns="http://www.w3.org/2000/svg" viewBox="0 0 23.63 29.16"><defs><style>.b4962fb3-71b7-40f0-868d-27179c41f239{fill:#ed1e79}</style></defs><g id="b1119207-d3ce-4383-b309-fd22e841bbc1" data-name="Capa 2"><g id="a4bf3c5a-f80d-48a2-a909-2899b446b9f2" data-name="HEADER"><path class="b4962fb3-71b7-40f0-868d-27179c41f239" d="M4.18 9h17.28a1 1 0 00.88-.5 1 1 0 00.06-1 4.12 4.12 0 00-.27-.5 1.42 1.42 0 01-.25-.88V6a3.21 3.21 0 00-2.13-3 1.62 1.62 0 01-.88-.71 2.88 2.88 0 00-2.5-1.48 2.59 2.59 0 00-.48 0 1.57 1.57 0 01-1.18-.24A3 3 0 0013 0a2.9 2.9 0 00-1.84.62 1.49 1.49 0 01-1.29.26A2.74 2.74 0 009.23.8 2.86 2.86 0 007 1.92a4.07 4.07 0 01-1.72 1.31 2.51 2.51 0 00-1.4 2.46.76.76 0 000 .15 1.78 1.78 0 01-.46 1.35A1 1 0 004.18 9zm-.3-1.33a2.44 2.44 0 00.63-1.82v-.12a2 2 0 011-1.87 4.63 4.63 0 002-1.51 2.24 2.24 0 011.77-.88 2.07 2.07 0 01.5.06 2.13 2.13 0 001.77-.37A2.32 2.32 0 0113 .62a2.4 2.4 0 011.39.45 2.19 2.19 0 001.61.39 2.34 2.34 0 01.38 0 2.24 2.24 0 011.94 1.14 2.24 2.24 0 001.22 1A2.58 2.58 0 0121.25 6v.07a2 2 0 00.37 1.27 3.13 3.13 0 01.22.36.39.39 0 010 .39.39.39 0 01-.35.2H4.18a.43.43 0 01-.39-.25.42.42 0 01.09-.41zM23.6 11.22a1.11 1.11 0 00-1.09-1H3.29a1.09 1.09 0 00-.81.36 1.05 1.05 0 00-.28.81v.59a6.47 6.47 0 00.22 1.34 2.37 2.37 0 01-.37 2.13c-.25.28-.46.54-.67.79a12 12 0 01-1 1.15A1.09 1.09 0 000 18.44c.05.25.27.7 1.07.93l.59.16h.12v.05a1 1 0 01-.17 1.07c-.3.42.09.84.34 1.07a.68.68 0 00-.19.38.63.63 0 00.37.66.56.56 0 01.24.65 1.05 1.05 0 010 .19 2.1 2.1 0 00.28 1.93c.88 1 3 .86 4.63.71l1-.07a5.65 5.65 0 01.15 2.62.33.33 0 00.29.34.31.31 0 00.33-.29c.06-.59.18-2.56-.35-3.13a.51.51 0 00-.38-.17c-.31 0-.7 0-1.1.08-1.45.13-3.44.3-4.11-.5A1.5 1.5 0 013 23.78a1.09 1.09 0 010-.17 1.19 1.19 0 00-.5-1.36l-.08-.06a.28.28 0 01.08-.08.4.4 0 00.16-.59 1 1 0 00-.18-.19 1.57 1.57 0 01-.29-.33 1.65 1.65 0 00.23-1.61v-.05c-.08-.3-.24-.34-.55-.42l-.57-.15c-.35-.1-.6-.28-.64-.48a.49.49 0 01.2-.45 14.32 14.32 0 001.09-1.2q.3-.37.66-.78a3 3 0 00.5-2.71 5.58 5.58 0 01-.2-1.22 1.86 1.86 0 000-.26v-.33a.46.46 0 01.02-.34.47.47 0 01.35-.15H22.5a.47.47 0 01.47.44c.21 2.78-.69 5.73-2.86 9.31-.89 1.45-1 4.65-.25 8.34a.31.31 0 00.31.25h.06a.3.3 0 00.24-.36c-.84-4.24-.44-6.91.17-7.9 2.25-3.72 3.19-6.79 2.96-9.71z"/></g></g></svg>